<?xml version="1.0" encoding="UTF-8"?>
<svg id="Layer_1" data-name="Layer 1" xmlns="http://www.w3.org/2000/svg" viewBox="0 0 242.87 198.82">
  <defs>
    <style>
      .cls-1 {
        fill: #b1eafc;
      }

      .cls-2 {
        fill: #fff;
        font-family: Impact, Impact;
        font-size: 66.47px;
      }

      .cls-3 {
        fill: #f40f4c;
      }
    </style>
  </defs>
  <path class="cls-1" d="M54.65,7.77c-1.09-.39-2.18-.79-3.27-1.18,.11-1.56,.52-3.2,2.44-2.72,2.4,.6,1.98,2.29,.83,3.9Z"/>
  <path class="cls-3" d="M56.85,170.23c0,2.03-2.72,2.71-3.67,.91l-23.51-44.63L1.62,68.42c-3.01-6.23-1.76-13.67,3.1-18.58L53.52,.58c1.22-1.24,3.33-.37,3.33,1.37V170.23Z"/>
  <path class="cls-3" d="M186.02,170.23c0,2.03,2.72,2.71,3.67,.91l23.51-44.63,28.04-58.08c3.01-6.23,1.76-13.67-3.1-18.58L189.35,.58c-1.22-1.24-3.33-.37-3.33,1.37V170.23Z"/>
  <path class="cls-3" d="M170.86,191.89l-98.48-1.1c-2.87-.03-4.83-2.91-3.81-5.59l25.2-66.33c.54-1.42,1.9-2.35,3.41-2.35h47.9c1.5,0,2.85,.92,3.4,2.32l26.27,67.43c1.06,2.72-.97,5.66-3.89,5.62Z"/>
  <path class="cls-3" d="M66.11,165.2l-.97-138.52c0-.81,1.14-.96,1.35-.18l21.84,83.48c.34,1.31,.26,2.69-.25,3.94l-20.65,51.52c-.28,.7-1.32,.5-1.32-.25Z"/>
  <path class="cls-3" d="M177.92,165.2l.97-138.52c0-.81-1.14-.96-1.35-.18l-21.84,83.48c-.34,1.31-.26,2.69,.25,3.94l20.65,51.52c.28,.7,1.32,.5,1.32-.25Z"/>
  <text class="cls-2" transform="translate(96.31 176.85) scale(1.28 1)"><tspan x="0" y="0">S</tspan></text>
</svg>